<?xml version="1.0" encoding="utf-8"?>
<!-- Generator: Adobe Illustrator 22.1.0, SVG Export Plug-In . SVG Version: 6.00 Build 0)  -->
<svg version="1.1" id="Capa_1" xmlns="http://www.w3.org/2000/svg" xmlns:xlink="http://www.w3.org/1999/xlink" x="0px" y="0px"
	 viewBox="0 0 51.5 38" style="enable-background:new 0 0 51.5 38;" xml:space="preserve">
<style type="text/css">
	.st0{fill:#EEEFF3;}
	.st1{fill:none;}
	.st2{fill:url(#SVGID_1_);}
	.st3{fill:#20E0EF;}
	.st4{fill:#2FC6F3;}
	.st5{fill:#3FACF7;}
	.st6{fill:#4E91FB;}
	.st7{fill:#5E77FF;}
	.st8{fill:#9669D6;}
	.st9{fill:#A27CDA;}
	.st10{fill:#AF8FDE;}
	.st11{fill:#BBA2E2;}
	.st12{fill:#C7B4E5;}
	.st13{fill:#D3C7E9;}
	.st14{fill:#E0DAED;}
	.st15{fill:#ECEDF1;}
	.st16{fill:#8E6BDC;}
	.st17{fill:#866DE2;}
	.st18{fill:#7E6FE8;}
	.st19{fill:#7671ED;}
	.st20{fill:#6E73F3;}
	.st21{fill:#6675F9;}
	.st22{fill:#7389FD;}
	.st23{fill:#889AFB;}
	.st24{fill:#9DACF9;}
	.st25{fill:#B3BDF8;}
	.st26{fill:#C8CFF6;}
	.st27{fill:#DDE0F4;}
	.st28{fill:#F2F2F2;}
	.st29{fill:#FFFFFF;}
	.st30{opacity:0.85;}
	.st31{fill:#ECEDF1;stroke:#FFFFFF;stroke-width:0.5;stroke-miterlimit:10;}
	.st32{fill:#758FF9;}
	.st33{opacity:0.58;fill:#8293A2;}
	.st34{fill:#8293A2;}
	.st35{fill:none;stroke:#FFFFFF;stroke-width:2;stroke-miterlimit:10;}
	.st36{fill:url(#SVGID_2_);}
	.st37{opacity:0.7;}
	.st38{opacity:0.5;}
	.st39{display:none;}
	.st40{fill:url(#SVGID_3_);}
	.st41{fill:url(#SVGID_4_);}
	.st42{fill:url(#SVGID_5_);}
	.st43{fill:url(#SVGID_6_);}
	.st44{fill:url(#SVGID_7_);}
	.st45{fill:url(#SVGID_8_);}
	.st46{fill:url(#SVGID_9_);}
	.st47{fill:url(#SVGID_10_);}
	.st48{fill:#6ADFD9;}
	.st49{opacity:0.1;}
	.st50{fill:url(#SVGID_11_);}
	.st51{fill:url(#SVGID_12_);}
	.st52{fill:url(#SVGID_13_);}
	.st53{fill:url(#SVGID_14_);}
	.st54{fill:url(#SVGID_15_);}
	.st55{fill:url(#SVGID_16_);}
	.st56{fill:url(#SVGID_17_);}
	.st57{fill:none;stroke:#9669D6;stroke-miterlimit:10;}
	.st58{fill:none;stroke:#A7B4FF;stroke-miterlimit:10;}
	.st59{fill:none;stroke:#9AD9ED;stroke-miterlimit:10;}
	.st60{fill:none;stroke:#F2F2F2;stroke-miterlimit:10;}
	.st61{fill:#8FA2F2;}
	.st62{fill:#7ADDE2;}
	.st63{fill:#ABB6CA;}
	.st64{fill:none;stroke:#6ADFD9;stroke-miterlimit:10;}
	.st65{fill:none;stroke:#5E77FF;stroke-miterlimit:10;}
	.st66{fill:url(#SVGID_18_);}
	.st67{fill:url(#SVGID_19_);}
	.st68{fill:#E0E0E2;}
	.st69{opacity:0.87;}
	.st70{fill:none;stroke:#FFFFFF;stroke-width:0.5;stroke-miterlimit:10;}
	.st71{fill:url(#SVGID_20_);}
	.st72{fill:#5E77FF;stroke:#5E77FF;stroke-miterlimit:10;}
	.st73{fill:#666666;stroke:#666666;stroke-width:0.5;stroke-miterlimit:10;}
	.st74{fill:url(#SVGID_21_);}
	.st75{fill:url(#SVGID_22_);}
	.st76{fill:url(#SVGID_23_);}
	.st77{fill:url(#SVGID_24_);}
	.st78{fill:url(#SVGID_25_);}
	.st79{fill:url(#SVGID_26_);}
	.st80{fill:url(#SVGID_27_);}
	.st81{fill:url(#SVGID_28_);}
	.st82{fill:url(#SVGID_29_);}
	.st83{fill:url(#SVGID_30_);}
	.st84{fill:url(#SVGID_31_);}
	.st85{fill:url(#SVGID_32_);}
	.st86{fill:url(#SVGID_33_);}
	.st87{fill:url(#SVGID_34_);}
	.st88{fill:url(#SVGID_35_);}
	.st89{fill:url(#SVGID_36_);}
	.st90{fill:url(#SVGID_37_);}
	.st91{fill:url(#SVGID_38_);}
	.st92{fill:url(#SVGID_39_);}
	.st93{fill:url(#SVGID_40_);}
	.st94{fill:url(#SVGID_41_);}
	.st95{fill:url(#SVGID_42_);}
	.st96{fill:url(#SVGID_43_);}
	.st97{fill:url(#SVGID_44_);}
	.st98{fill:url(#SVGID_45_);}
	.st99{opacity:0.74;fill:#FFFFFF;}
	.st100{fill:#1D1D1B;}
	.st101{fill:#C6C6C5;}
	.st102{fill:#E20613;}
	.st103{opacity:0.74;fill:url(#SVGID_46_);}
	.st104{opacity:0.74;fill:url(#SVGID_47_);}
	.st105{fill:url(#SVGID_48_);}
	.st106{fill:url(#SVGID_49_);}
	.st107{fill:url(#SVGID_50_);}
	.st108{fill:url(#SVGID_51_);}
	.st109{fill:url(#SVGID_52_);}
	.st110{fill:url(#SVGID_53_);}
	.st111{fill:url(#SVGID_54_);}
	.st112{fill:url(#SVGID_55_);}
	.st113{opacity:0.74;fill:url(#SVGID_56_);}
	.st114{fill:#6B7984;}
	.st115{fill:#40D2D6;}
	.st116{fill:url(#SVGID_57_);}
	.st117{fill:url(#SVGID_58_);}
	.st118{fill:url(#SVGID_59_);}
	.st119{fill:url(#SVGID_60_);}
	.st120{fill:url(#SVGID_61_);}
	.st121{fill:url(#SVGID_62_);}
	.st122{fill:url(#SVGID_63_);}
	.st123{fill:url(#SVGID_64_);}
	.st124{fill:url(#SVGID_65_);}
	.st125{fill:url(#SVGID_66_);}
	.st126{fill:url(#SVGID_67_);}
	.st127{fill:url(#SVGID_68_);}
	.st128{fill:url(#SVGID_69_);}
	.st129{fill:url(#SVGID_70_);}
	.st130{fill:url(#SVGID_71_);}
	.st131{fill:url(#SVGID_72_);}
	.st132{opacity:0.74;fill:url(#SVGID_73_);}
</style>
<g>
	<path class="st29" d="M7.7,22.5c-2,0-3.6,0.7-4.9,2c-1.2,1.3-1.9,3.1-1.9,5.3c0,2.2,0.6,3.9,1.9,5.2c1.2,1.3,2.9,2,4.9,2
		c2,0,3.6-0.7,4.9-2c1.2-1.3,1.9-3.1,1.9-5.2c0-2.2-0.6-3.9-1.9-5.3C11.3,23.2,9.7,22.5,7.7,22.5z M9.2,31.7
		c-0.4,0.5-0.9,0.8-1.6,0.8c-0.6,0-1.2-0.3-1.6-0.8c-0.4-0.5-0.6-1.2-0.6-2c0-0.8,0.2-1.5,0.6-2c0.4-0.5,1-0.8,1.6-0.8
		c0.6,0,1.2,0.3,1.6,0.8c0.4,0.5,0.6,1.2,0.6,2C9.9,30.6,9.6,31.2,9.2,31.7z"/>
	<polygon class="st29" points="46.4,32.9 46.4,31.6 50.1,31.6 50.1,27.8 46.4,27.8 46.4,26.4 50.5,26.4 50.5,22.5 41.7,22.5 
		41.7,37 50.6,37 50.6,32.9 	"/>
	<path class="st29" d="M36.1,22.5L36,22.3h0.5V1H15v21.3h8.7l0.3,1.2v6.3l-4-7.3h-4.6V37H20l0-7.1l3.9,7.1h4.7V25.5l0.8-0.2V37h4.7
		v-4.4h2.5c1.3,0,2.3-0.5,3.1-1.4c0.8-0.9,1.2-2.1,1.2-3.6c0-1.5-0.5-2.8-1.4-3.8C38.5,23,37.4,22.6,36.1,22.5z M33.3,3.6
		c0,0-0.3-0.9-0.9-1.7h3.2v18.6L32.3,8C32.9,7.1,33.9,5.2,33.3,3.6z M16,2h14.6c0.5,0.6,1.3,1.7,1.3,2.6c0,0.5-0.1,0.9-0.2,1.1
		l-2.5,0.6C29.1,5.8,29,5.5,29,5.5l-1.3,0.4l2.1,8.1c0,0,0.4,1.2-0.4,1.4c0,0-0.7,0.1-0.9-0.4C28.3,14.3,27,8.8,27,8.8l-1.5,0.4
		l1.1,4.7c0,0,0.4,1.4-0.5,1.7c0,0-1.1,0.4-1.5-0.9c-0.3-1.3-1.3-5-1.3-5l-1.6,0.4l0.5,1.8c0,0,0.4,1.4-0.5,1.7
		c-0.9,0.4-1.3-0.3-1.4-0.6c-0.1-0.4-0.6-2.5-0.6-2.5l-1.3,0.2l0.5,2.2c0,0,0.2,0.8-0.4,1c-0.6,0.2-0.8-0.5-0.9-0.7
		c-0.1-0.2-1-2.8-1.1-3.8c-0.2-1-0.7-4.4-0.7-5C16,3.7,15.9,2.9,16,2z M15.9,21.3V10.9c0.1,0.3,0.2,0.7,0.3,1c0.5,2,0.7,3.7,2.4,3.5
		c0,0,1.1-0.1,1.3-0.8c0,0,0.9,0.5,1.8,0.4l1.8,6.3H15.9z M25.5,25.2l-2.9-10.5l-0.3,0.1c0.7-0.3,1-0.9,1-0.9s0.5,1.9,0.7,2.4
		c0.2,0.5,1.2,0.8,1.9,0.6c0.8-0.2,1.6-1.3,1.6-1.3s0.9,1.3,2.4,0.7c0,0,1.5-0.7,1.3-1.7C31,13.9,30,9.5,29.4,7.1l0,0.2l1.6-0.4
		l4.2,16L25.5,25.2z M35.9,28.6c-0.2,0.3-0.6,0.4-1,0.4h-0.9v-2.6h1.1c0.3,0,0.6,0.1,0.8,0.3c0.2,0.2,0.3,0.5,0.3,0.8
		C36.3,28,36.2,28.3,35.9,28.6z"/>
</g>
</svg>
