<?xml version="1.0" encoding="utf-8"?>
<!-- Generator: Adobe Illustrator 22.1.0, SVG Export Plug-In . SVG Version: 6.00 Build 0)  -->
<svg version="1.1" xmlns="http://www.w3.org/2000/svg" xmlns:xlink="http://www.w3.org/1999/xlink" x="0px" y="0px"
	 viewBox="0 0 122.4 28.9" style="enable-background:new 0 0 122.4 28.9;" xml:space="preserve">
<style type="text/css">
	.st0{display:none;}
	.st1{fill:#EEEFF3;}
	.st2{fill:#40D2D6;}
	.st3{fill:#FFFFFF;}
	.st4{fill:url(#SVGID_1_);}
	.st5{opacity:0.1;clip-path:url(#SVGID_3_);}
	.st6{fill:url(#SVGID_4_);}
	.st7{fill:url(#SVGID_5_);}
	.st8{fill:url(#SVGID_6_);}
	.st9{opacity:0.5;fill:url(#SVGID_7_);}
	.st10{fill:url(#SVGID_8_);}
	.st11{fill:url(#SVGID_9_);}
	.st12{fill:url(#SVGID_10_);}
	.st13{fill:url(#SVGID_11_);}
	.st14{fill:url(#SVGID_12_);}
	.st15{fill:url(#SVGID_13_);}
	.st16{fill:url(#SVGID_14_);}
	.st17{fill:url(#SVGID_15_);}
	.st18{fill:#6ADFD9;}
	.st19{opacity:0.55;}
	.st20{opacity:0.74;}
	.st21{fill:none;stroke:#808080;stroke-width:0.25;stroke-miterlimit:10;}
	.st22{fill:#40D2D6;stroke:#40D2D6;stroke-width:0.5;stroke-miterlimit:10;}
	.st23{fill:#5E77FF;}
	.st24{fill:url(#SVGID_16_);}
	.st25{fill:url(#SVGID_17_);}
	.st26{fill:url(#SVGID_18_);}
	.st27{fill:url(#SVGID_19_);}
	.st28{fill:url(#SVGID_20_);}
	.st29{fill:url(#SVGID_21_);}
	.st30{fill:url(#SVGID_22_);}
	.st31{fill:url(#SVGID_23_);}
	.st32{opacity:0.74;fill:url(#SVGID_24_);}
	.st33{fill:url(#SVGID_25_);}
	.st34{fill:url(#SVGID_26_);}
	.st35{fill:url(#SVGID_27_);}
	.st36{fill:url(#SVGID_28_);}
	.st37{fill:url(#SVGID_29_);}
	.st38{fill:url(#SVGID_30_);}
	.st39{fill:url(#SVGID_31_);}
	.st40{fill:url(#SVGID_32_);}
	.st41{opacity:0.1;}
	.st42{opacity:0.5;fill:url(#SVGID_33_);}
	.st43{opacity:0.5;fill:url(#SVGID_34_);}
	.st44{fill:#6B7984;}
	.st45{fill:#3F3F3F;}
	.st46{fill:#F2F2F2;}
	.st47{fill:url(#SVGID_35_);}
	.st48{fill:url(#SVGID_36_);}
	.st49{fill:url(#SVGID_37_);}
	.st50{fill:url(#SVGID_38_);}
	.st51{fill:url(#SVGID_39_);}
	.st52{fill:url(#SVGID_40_);}
	.st53{fill:url(#SVGID_41_);}
	.st54{fill:url(#SVGID_42_);}
	.st55{fill:#758FF9;}
	.st56{fill:none;stroke:#F2F2F2;stroke-width:0.25;stroke-miterlimit:10;}
	.st57{fill:#F2F2F2;stroke:#F2F2F2;stroke-width:0.75;stroke-miterlimit:10;}
	.st58{fill:#F7F8FA;}
	.st59{display:none;fill:#F7F8FA;}
	.st60{opacity:0.2;fill:#ABB6CA;}
	.st61{fill:#5F5FFF;}
	.st62{fill:#8FA2F2;}
	.st63{fill:#6969F7;}
	.st64{fill:none;stroke:#5E77FF;stroke-miterlimit:10;}
	.st65{fill:none;stroke:#40D2D6;stroke-miterlimit:10;}
	.st66{fill:none;stroke:#9669D6;stroke-miterlimit:10;}
	.st67{fill:#ABB6CA;}
	.st68{fill:none;stroke:#000000;stroke-miterlimit:10;}
	.st69{stroke:#000000;stroke-width:0.75;stroke-miterlimit:10;}
	.st70{fill:#333333;}
	.st71{fill:#40D2D6;stroke:#40D2D6;stroke-width:2;stroke-miterlimit:10;}
	.st72{fill:#EDEDED;}
	.st73{fill:#D6D7D8;}
	.st74{fill:#414242;}
	.st75{fill:#7388F6;}
	.st76{fill:none;stroke:#A7B4FF;stroke-miterlimit:10;}
	.st77{fill:#A7B4FF;}
	.st78{fill:#9669D6;}
	.st79{fill:#857ED6;}
	.st80{fill:#9CD3D1;}
	.st81{fill:#2FA5B2;}
	.st82{fill:#653FC4;}
	.st83{fill:#BAC3D1;}
	.st84{fill:#6C61FF;}
	.st85{fill:#889AFB;}
	.st86{fill:#2FC6F3;}
	.st87{fill:#B3BDF8;}
	.st88{fill:none;stroke:url(#SVGID_43_);stroke-width:2;stroke-miterlimit:10;}
	.st89{fill:#1D1D1B;}
	.st90{fill:#C6C6C5;}
	.st91{fill:#E20613;}
	.st92{fill:none;}
	.st93{opacity:0.85;}
	.st94{fill:#ECEDF1;stroke:#FFFFFF;stroke-width:0.5;stroke-miterlimit:10;}
	.st95{fill:none;stroke:#FFFFFF;stroke-width:2;stroke-miterlimit:10;}
	.st96{fill:url(#SVGID_44_);}
	.st97{opacity:0.7;}
	.st98{fill:#8293A2;}
	.st99{fill:none;stroke:#6ADFD9;stroke-miterlimit:10;}
	.st100{fill:url(#SVGID_45_);}
	.st101{fill:url(#SVGID_46_);}
	.st102{fill-rule:evenodd;clip-rule:evenodd;fill:#324A5E;}
	.st103{fill-rule:evenodd;clip-rule:evenodd;fill:#F9B54C;}
	.st104{fill-rule:evenodd;clip-rule:evenodd;fill:#FFD05B;}
	.st105{fill-rule:evenodd;clip-rule:evenodd;fill:#FEE187;}
	.st106{fill-rule:evenodd;clip-rule:evenodd;fill:#E6E9EE;}
	.st107{fill-rule:evenodd;clip-rule:evenodd;fill:#BA7958;}
	.st108{fill-rule:evenodd;clip-rule:evenodd;fill:#FEFEFE;}
	.st109{opacity:0.15;fill:#A7B4FF;}
	.st110{opacity:0.34;fill:#ECEDF1;}
	.st111{opacity:0.55;fill:#5E77FF;}
	.st112{fill:#5B6271;}
	.st113{opacity:0.15;fill:#40D2D6;}
	.st114{opacity:0.55;fill:#40D2D6;}
	.st115{clip-path:url(#SVGID_48_);}
	.st116{clip-path:url(#SVGID_48_);fill:#F2F2F2;stroke:#F2F2F2;stroke-width:0.75;stroke-miterlimit:10;}
	.st117{opacity:0.15;clip-path:url(#SVGID_48_);fill:#A7B4FF;}
	.st118{opacity:0.34;clip-path:url(#SVGID_48_);fill:#ECEDF1;}
	.st119{opacity:0.55;clip-path:url(#SVGID_48_);fill:#5E77FF;}
	.st120{clip-path:url(#SVGID_48_);fill:#5B6271;}
	.st121{clip-path:url(#SVGID_48_);fill:#A7B4FF;}
	.st122{fill-rule:evenodd;clip-rule:evenodd;fill:#84DBFF;}
	.st123{fill-rule:evenodd;clip-rule:evenodd;fill:#233540;}
	.st124{fill-rule:evenodd;clip-rule:evenodd;fill:#FF7058;}
	.st125{fill-rule:evenodd;clip-rule:evenodd;fill:#4CDBC4;}
	.st126{fill-rule:evenodd;clip-rule:evenodd;fill:#FFFFFF;}
	.st127{fill-rule:evenodd;clip-rule:evenodd;fill:#ECF0F1;}
	.st128{fill-rule:evenodd;clip-rule:evenodd;fill:#DFE1E3;}
	.st129{fill-rule:evenodd;clip-rule:evenodd;fill:#F1543F;}
	.st130{fill-rule:evenodd;clip-rule:evenodd;fill:#FD8469;}
	.st131{fill-rule:evenodd;clip-rule:evenodd;fill:#CED5E0;}
	.st132{fill-rule:evenodd;clip-rule:evenodd;fill:#D0D2D4;}
	.st133{fill:none;stroke:#5B6271;stroke-width:0.25;stroke-miterlimit:10;}
	.st134{clip-path:url(#SVGID_50_);}
	.st135{clip-path:url(#SVGID_50_);fill:#F2F2F2;stroke:#F2F2F2;stroke-width:0.75;stroke-miterlimit:10;}
	.st136{opacity:0.15;clip-path:url(#SVGID_50_);fill:#A7B4FF;}
	.st137{opacity:0.34;clip-path:url(#SVGID_50_);fill:#ECEDF1;}
	.st138{opacity:0.55;clip-path:url(#SVGID_50_);fill:#5E77FF;}
	.st139{clip-path:url(#SVGID_50_);fill:#5B6271;}
	.st140{clip-path:url(#SVGID_50_);fill:#A7B4FF;}
	.st141{fill-rule:evenodd;clip-rule:evenodd;fill:#90DFAA;}
	.st142{fill-rule:evenodd;clip-rule:evenodd;fill:#221F20;}
	.st143{fill-rule:evenodd;clip-rule:evenodd;fill:#F0B97D;}
	.st144{fill-rule:evenodd;clip-rule:evenodd;fill:#FED198;}
	.st145{fill-rule:evenodd;clip-rule:evenodd;fill:#E26868;}
	.st146{fill-rule:evenodd;clip-rule:evenodd;fill:#45A5AE;}
	.st147{fill-rule:evenodd;clip-rule:evenodd;fill:#699791;}
	.st148{fill-rule:evenodd;clip-rule:evenodd;fill:#9669D6;}
	.st149{fill-rule:evenodd;clip-rule:evenodd;fill:#FDDCCC;}
	.st150{fill-rule:evenodd;clip-rule:evenodd;fill:#333333;}
	.st151{fill-rule:evenodd;clip-rule:evenodd;fill:#E5E6E7;}
	.st152{fill-rule:evenodd;clip-rule:evenodd;fill:#191819;}
	.st153{fill-rule:evenodd;clip-rule:evenodd;fill:#28A7DF;}
	.st154{fill-rule:evenodd;clip-rule:evenodd;fill:#8FA7AF;}
	.st155{fill-rule:evenodd;clip-rule:evenodd;fill:#1C96CC;}
	.st156{fill-rule:evenodd;clip-rule:evenodd;fill:#1F120E;}
	.st157{fill-rule:evenodd;clip-rule:evenodd;fill:#FBB03B;}
	.st158{opacity:0.25;fill:#5E77FF;}
	.st159{fill:url(#SVGID_51_);}
	.st160{fill:url(#SVGID_52_);}
	.st161{fill:url(#SVGID_53_);}
	.st162{fill:url(#SVGID_54_);}
	.st163{fill:url(#SVGID_55_);}
	.st164{fill:url(#SVGID_56_);}
	.st165{fill:url(#SVGID_57_);}
	.st166{fill:url(#SVGID_58_);}
	.st167{fill:url(#SVGID_59_);}
	.st168{fill:url(#SVGID_60_);}
	.st169{fill:url(#SVGID_61_);}
	.st170{fill:url(#SVGID_62_);}
	.st171{fill:url(#SVGID_63_);}
	.st172{fill:url(#SVGID_64_);}
	.st173{fill:url(#SVGID_65_);}
	.st174{fill:url(#SVGID_66_);}
	.st175{fill:url(#SVGID_67_);}
	.st176{fill:url(#SVGID_68_);}
	.st177{fill:url(#SVGID_69_);}
	.st178{fill:url(#SVGID_70_);}
	.st179{fill:url(#SVGID_71_);}
	.st180{fill:url(#SVGID_72_);}
	.st181{fill:url(#SVGID_73_);}
	.st182{fill:url(#SVGID_74_);}
	.st183{fill:url(#SVGID_75_);}
	.st184{fill:#20E0EF;}
	.st185{fill:#3FACF7;}
	.st186{fill:#4E91FB;}
	.st187{fill:#A27CDA;}
	.st188{fill:#AF8FDE;}
	.st189{fill:#BBA2E2;}
	.st190{fill:#C7B4E5;}
	.st191{fill:#D3C7E9;}
	.st192{fill:#E0DAED;}
	.st193{fill:#ECEDF1;}
	.st194{fill:#8E6BDC;}
	.st195{fill:#866DE2;}
	.st196{fill:#7E6FE8;}
	.st197{fill:#7671ED;}
	.st198{fill:#6E73F3;}
	.st199{fill:#6675F9;}
	.st200{fill:#7389FD;}
	.st201{fill:#9DACF9;}
	.st202{fill:#C8CFF6;}
	.st203{fill:#DDE0F4;}
	.st204{fill:url(#SVGID_76_);}
	.st205{fill:url(#SVGID_77_);}
	.st206{fill:url(#SVGID_78_);}
	.st207{fill:url(#SVGID_79_);}
	.st208{fill:url(#SVGID_80_);}
	.st209{fill:url(#SVGID_81_);}
	.st210{fill:url(#SVGID_82_);}
	.st211{fill:url(#SVGID_83_);}
	.st212{fill:url(#SVGID_84_);}
	.st213{opacity:0.1;clip-path:url(#SVGID_86_);}
	.st214{fill:url(#SVGID_87_);}
	.st215{fill:url(#SVGID_88_);}
	.st216{fill:url(#SVGID_89_);}
	.st217{opacity:0.1;clip-path:url(#SVGID_91_);}
	.st218{fill:url(#SVGID_92_);}
	.st219{fill:url(#SVGID_93_);}
	.st220{fill:url(#SVGID_94_);}
	.st221{fill:none;stroke:#9AD9ED;stroke-miterlimit:10;}
	.st222{fill:none;stroke:#F2F2F2;stroke-miterlimit:10;}
	.st223{fill:#7ADDE2;}
	.st224{fill:#859BF9;}
	.st225{fill:#9B94F2;}
	.st226{fill:#AAB8E5;}
	.st227{fill:#B5E2E1;}
	.st228{opacity:0.87;}
	.st229{fill:none;stroke:#FFFFFF;stroke-width:0.5;stroke-miterlimit:10;}
	.st230{fill:url(#SVGID_95_);}
	.st231{opacity:0.29;fill:#C7D0FF;}
	.st232{fill:url(#SVGID_96_);}
	.st233{fill:url(#SVGID_97_);}
	.st234{fill:url(#SVGID_98_);}
	.st235{fill:url(#SVGID_99_);}
	.st236{fill:url(#SVGID_100_);}
	.st237{fill:url(#SVGID_101_);}
	.st238{fill:url(#SVGID_102_);}
	.st239{fill:url(#SVGID_103_);}
	.st240{fill:url(#SVGID_104_);}
	.st241{fill:url(#SVGID_105_);}
	.st242{fill:url(#SVGID_106_);}
	.st243{fill:url(#SVGID_107_);}
	.st244{fill:#4D4D4D;}
	.st245{fill:#5E77FF;stroke:#5E77FF;stroke-miterlimit:10;}
	.st246{fill:#E6E6E6;}
	.st247{fill:#29E1B1;}
	.st248{fill:#E8BB4A;}
	.st249{fill:#C1272D;}
</style>
<g id="Capa_2" class="st0">
</g>
<g id="Capa_3">
</g>
<g id="Capa_1">
	<g>
		<g>
			<linearGradient id="SVGID_1_" gradientUnits="userSpaceOnUse" x1="35.9919" y1="20.5066" x2="35.9919" y2="8.1038">
				<stop  offset="0" style="stop-color:#FFFFFF;stop-opacity:0.9"/>
				<stop  offset="0.1413" style="stop-color:#FFFFFF;stop-opacity:0.9141"/>
				<stop  offset="1" style="stop-color:#FFFFFF"/>
			</linearGradient>
			<path class="st4" d="M41.3,18.7c-0.6,0.6-1.2,1-2,1.3c-0.7,0.3-1.6,0.5-2.4,0.5c-0.9,0-1.7-0.2-2.4-0.5c-0.8-0.3-1.4-0.8-2-1.3
				s-1-1.2-1.3-2c-0.3-0.8-0.5-1.6-0.5-2.4c0-0.9,0.2-1.7,0.5-2.4c0.3-0.8,0.8-1.4,1.3-2c0.6-0.6,1.2-1,2-1.3
				c0.8-0.3,1.6-0.5,2.4-0.5c0.9,0,1.7,0.2,2.4,0.5c0.7,0.3,1.4,0.8,2,1.3l-1.4,1.4c-0.4-0.4-0.8-0.7-1.3-0.9
				c-0.5-0.2-1-0.3-1.6-0.3c-0.6,0-1.1,0.1-1.6,0.3c-0.5,0.2-0.9,0.5-1.3,0.9c-0.4,0.4-0.7,0.8-0.9,1.3c-0.2,0.5-0.3,1-0.3,1.6
				c0,0.6,0.1,1.1,0.3,1.6c0.2,0.5,0.5,1,0.9,1.4c0.4,0.4,0.8,0.7,1.3,0.9c0.5,0.2,1,0.3,1.6,0.3c0.6,0,1.1-0.1,1.6-0.3
				c0.5-0.2,0.9-0.5,1.3-0.9L41.3,18.7z"/>
			<linearGradient id="SVGID_3_" gradientUnits="userSpaceOnUse" x1="46.7336" y1="20.2852" x2="46.7336" y2="8.3763">
				<stop  offset="0" style="stop-color:#FFFFFF;stop-opacity:0.9"/>
				<stop  offset="0.1413" style="stop-color:#FFFFFF;stop-opacity:0.9141"/>
				<stop  offset="1" style="stop-color:#FFFFFF"/>
			</linearGradient>
			<path style="fill:url(#SVGID_3_);" d="M50.1,18.2v2h-4.7h-2v-2V8.4h2v9.9H50.1z"/>
			<linearGradient id="SVGID_4_" gradientUnits="userSpaceOnUse" x1="58.4293" y1="20.2852" x2="58.4293" y2="8.3593">
				<stop  offset="0" style="stop-color:#FFFFFF;stop-opacity:0.9"/>
				<stop  offset="0.1413" style="stop-color:#FFFFFF;stop-opacity:0.9141"/>
				<stop  offset="1" style="stop-color:#FFFFFF"/>
			</linearGradient>
			<path class="st6" d="M64.9,20.3h-2.2l-0.9-2l-0.9-2l-2.4-5.3L56,16.2h3.1l0.9,2h-4.9l-0.9,2h-2.2l5.4-11.9h2.2L64.9,20.3z"/>
			<linearGradient id="SVGID_5_" gradientUnits="userSpaceOnUse" x1="71.3858" y1="20.2852" x2="71.3858" y2="8.3593">
				<stop  offset="0" style="stop-color:#FFFFFF;stop-opacity:0.9"/>
				<stop  offset="0.1413" style="stop-color:#FFFFFF;stop-opacity:0.9141"/>
				<stop  offset="1" style="stop-color:#FFFFFF"/>
			</linearGradient>
			<path class="st7" d="M75.8,12.6c0,0.4-0.1,0.8-0.2,1.2c-0.1,0.4-0.3,0.8-0.5,1.1c-0.2,0.3-0.5,0.6-0.8,0.9
				c-0.3,0.3-0.6,0.5-1,0.7l2.4,3.8h-2.4l-2.2-3.4h-1.4l0.8-2h0.9c0.6,0,1.1-0.2,1.6-0.7c0.2-0.2,0.4-0.5,0.5-0.7
				c0.1-0.3,0.2-0.6,0.2-0.9c0-0.3-0.1-0.6-0.2-0.9c-0.1-0.3-0.3-0.5-0.5-0.7c-0.4-0.4-1-0.7-1.6-0.7h-2.4v1.1v3.4v2v3.4h-2v-3.4
				v-5.4V8.4h4.5c0.6,0,1.1,0.1,1.7,0.3c0.5,0.2,1,0.5,1.4,0.9c0.4,0.4,0.7,0.8,0.9,1.4C75.6,11.5,75.8,12,75.8,12.6z"/>
			<linearGradient id="SVGID_6_" gradientUnits="userSpaceOnUse" x1="79.2822" y1="20.2852" x2="79.2822" y2="8.3763">
				<stop  offset="0" style="stop-color:#FFFFFF;stop-opacity:0.9"/>
				<stop  offset="0.1413" style="stop-color:#FFFFFF;stop-opacity:0.9141"/>
				<stop  offset="1" style="stop-color:#FFFFFF"/>
			</linearGradient>
			<path class="st8" d="M80.3,20.3h-2V8.4h2V20.3z"/>
			<linearGradient id="SVGID_7_" gradientUnits="userSpaceOnUse" x1="88.3459" y1="20.2852" x2="88.3459" y2="8.3593">
				<stop  offset="0" style="stop-color:#FFFFFF;stop-opacity:0.9"/>
				<stop  offset="0.1413" style="stop-color:#FFFFFF;stop-opacity:0.9141"/>
				<stop  offset="1" style="stop-color:#FFFFFF"/>
			</linearGradient>
			<path style="fill:url(#SVGID_7_);" d="M90.2,8.8c0.7,0.3,1.4,0.7,1.9,1.3c0.5,0.5,1,1.2,1.3,1.9c0.3,0.7,0.5,1.5,0.5,2.3
				c0,0.8-0.2,1.6-0.5,2.3c-0.3,0.7-0.7,1.4-1.3,1.9c-0.5,0.5-1.2,1-1.9,1.3c-0.7,0.3-1.5,0.5-2.3,0.5h-2.1l0.8-2h1.3
				c0.5,0,1-0.1,1.5-0.3c0.5-0.2,0.9-0.5,1.3-0.8c0.4-0.4,0.6-0.8,0.8-1.3c0.2-0.5,0.3-1,0.3-1.5c0-0.5-0.1-1-0.3-1.5
				c-0.2-0.5-0.5-0.9-0.8-1.3c-0.4-0.4-0.8-0.6-1.3-0.8c-0.5-0.2-1-0.3-1.5-0.3h-2.9v4.9v2.9v2h-2V8.4h4.9
				C88.7,8.4,89.4,8.5,90.2,8.8z"/>
			<linearGradient id="SVGID_8_" gradientUnits="userSpaceOnUse" x1="100.9702" y1="20.2852" x2="100.9702" y2="8.3593">
				<stop  offset="0" style="stop-color:#FFFFFF;stop-opacity:0.9"/>
				<stop  offset="0.1413" style="stop-color:#FFFFFF;stop-opacity:0.9141"/>
				<stop  offset="1" style="stop-color:#FFFFFF"/>
			</linearGradient>
			<path class="st10" d="M107.5,20.3h-2.2l-0.9-2l-0.9-2l-2.4-5.3l-2.4,5.3h3.1l0.9,2h-4.9l-0.9,2h-2.2l5.4-11.9h2.2L107.5,20.3z"/>
			<linearGradient id="SVGID_9_" gradientUnits="userSpaceOnUse" x1="115.0085" y1="20.2852" x2="115.0085" y2="8.3593">
				<stop  offset="0" style="stop-color:#FFFFFF;stop-opacity:0.9"/>
				<stop  offset="0.1413" style="stop-color:#FFFFFF;stop-opacity:0.9141"/>
				<stop  offset="1" style="stop-color:#FFFFFF"/>
			</linearGradient>
			<path class="st11" d="M116.8,8.8c0.7,0.3,1.4,0.7,1.9,1.3c0.5,0.5,1,1.2,1.3,1.9c0.3,0.7,0.5,1.5,0.5,2.3c0,0.8-0.2,1.6-0.5,2.3
				c-0.3,0.7-0.7,1.4-1.3,1.9c-0.5,0.5-1.2,1-1.9,1.3c-0.7,0.3-1.5,0.5-2.3,0.5h-2.1l0.8-2h1.3c0.5,0,1-0.1,1.5-0.3
				c0.5-0.2,0.9-0.5,1.3-0.8c0.4-0.4,0.6-0.8,0.8-1.3c0.2-0.5,0.3-1,0.3-1.5c0-0.5-0.1-1-0.3-1.5c-0.2-0.5-0.5-0.9-0.8-1.3
				c-0.4-0.4-0.8-0.6-1.3-0.8c-0.5-0.2-1-0.3-1.5-0.3h-2.9v4.9v2.9v2h-2V8.4h4.9C115.3,8.4,116.1,8.5,116.8,8.8z"/>
		</g>
		<g>
			<g>
				<path class="st3" d="M7.3,18.8c-0.8-1.2-1.3-2.7-1.3-4.3c0-4.4,3.6-7.9,7.9-7.9c3.4,0,6.3,2.1,7.4,5.1l3.8-1.5
					C23.5,5.6,19.1,2.4,14,2.4c-6.6,0-12,5.4-12,12c0,2.7,0.9,5.2,2.4,7.3C5.5,20.5,6.6,19.4,7.3,18.8z"/>
			</g>
			<g>
				<path class="st3" d="M13.9,22.4c-1.7,0-3.2-0.5-4.5-1.4l-2.8,3c2,1.6,4.6,2.5,7.3,2.5c5.1,0,9.5-3.2,11.2-7.7l-3.8-1.5
					C20.2,20.3,17.3,22.4,13.9,22.4z"/>
			</g>
			<g>
				<circle class="st18" cx="14" cy="14.4" r="4.7"/>
			</g>
			<g>
				<path class="st3" d="M4.9,25.6L4.9,25.6c-0.7,0.7-1.8,0.7-2.5,0C2.3,25.4,2.1,25.2,2,25c0.1,0.3,0.2,0.7,0.5,0.9
					c0.7,0.7,1.8,0.7,2.5,0l0,0l4.7-4.8l-0.3-0.2L4.9,25.6z"/>
			</g>
		</g>
	</g>
</g>
</svg>
