<?xml version="1.0" encoding="utf-8"?>
<!-- Generator: Adobe Illustrator 22.1.0, SVG Export Plug-In . SVG Version: 6.00 Build 0)  -->
<svg version="1.1" xmlns="http://www.w3.org/2000/svg" xmlns:xlink="http://www.w3.org/1999/xlink" x="0px" y="0px"
	 viewBox="0 0 119.3 103" style="enable-background:new 0 0 119.3 103;" xml:space="preserve">
<style type="text/css">
	.st0{display:none;}
	.st1{fill:#EEEFF3;}
	.st2{fill:#40D2D6;}
	.st3{fill:#FFFFFF;}
	.st4{fill:url(#SVGID_1_);}
	.st5{opacity:0.1;clip-path:url(#SVGID_3_);}
	.st6{fill:url(#SVGID_4_);}
	.st7{fill:url(#SVGID_5_);}
	.st8{fill:url(#SVGID_6_);}
	.st9{opacity:0.5;fill:url(#SVGID_7_);}
	.st10{fill:url(#SVGID_8_);}
	.st11{fill:url(#SVGID_9_);}
	.st12{fill:url(#SVGID_10_);}
	.st13{fill:url(#SVGID_11_);}
	.st14{fill:url(#SVGID_12_);}
	.st15{fill:url(#SVGID_13_);}
	.st16{fill:url(#SVGID_14_);}
	.st17{fill:url(#SVGID_15_);}
	.st18{fill:#6ADFD9;}
	.st19{fill:url(#SVGID_16_);}
	.st20{fill:url(#SVGID_17_);}
	.st21{fill:url(#SVGID_18_);}
	.st22{fill:url(#SVGID_19_);}
	.st23{fill:url(#SVGID_20_);}
	.st24{fill:url(#SVGID_21_);}
	.st25{fill:url(#SVGID_22_);}
	.st26{fill:url(#SVGID_23_);}
	.st27{opacity:0.7;}
	.st28{opacity:0.74;}
	.st29{fill:none;stroke:#808080;stroke-width:0.25;stroke-miterlimit:10;}
	.st30{fill:#40D2D6;stroke:#40D2D6;stroke-width:0.5;stroke-miterlimit:10;}
	.st31{fill:url(#SVGID_24_);}
	.st32{fill:url(#SVGID_25_);}
	.st33{fill:url(#SVGID_26_);}
	.st34{fill:url(#SVGID_27_);}
	.st35{fill:url(#SVGID_28_);}
	.st36{fill:url(#SVGID_29_);}
	.st37{fill:url(#SVGID_30_);}
	.st38{fill:url(#SVGID_31_);}
	.st39{fill:#5E77FF;}
	.st40{opacity:0.74;fill:url(#SVGID_32_);}
	.st41{fill:url(#SVGID_33_);}
	.st42{fill:url(#SVGID_34_);}
	.st43{fill:url(#SVGID_35_);}
	.st44{fill:url(#SVGID_36_);}
	.st45{fill:url(#SVGID_37_);}
	.st46{fill:url(#SVGID_38_);}
	.st47{fill:url(#SVGID_39_);}
	.st48{fill:url(#SVGID_40_);}
	.st49{opacity:0.1;}
	.st50{opacity:0.5;fill:url(#SVGID_41_);}
	.st51{opacity:0.5;fill:url(#SVGID_42_);}
	.st52{fill:#6B7984;}
	.st53{fill:#3F3F3F;}
	.st54{fill:#F2F2F2;}
	.st55{fill:url(#SVGID_43_);}
	.st56{fill:url(#SVGID_44_);}
	.st57{fill:url(#SVGID_45_);}
	.st58{fill:url(#SVGID_46_);}
	.st59{fill:url(#SVGID_47_);}
	.st60{fill:url(#SVGID_48_);}
	.st61{fill:url(#SVGID_49_);}
	.st62{fill:url(#SVGID_50_);}
	.st63{fill:#758FF9;}
	.st64{fill:none;stroke:#F2F2F2;stroke-width:0.25;stroke-miterlimit:10;}
	.st65{fill:#F2F2F2;stroke:#F2F2F2;stroke-width:0.75;stroke-miterlimit:10;}
	.st66{fill:#F7F8FA;}
	.st67{display:none;fill:#F7F8FA;}
	.st68{opacity:0.2;fill:#ABB6CA;}
	.st69{fill:#5F5FFF;}
	.st70{fill:#8FA2F2;}
	.st71{fill:#6969F7;}
	.st72{fill:none;stroke:#5E77FF;stroke-miterlimit:10;}
	.st73{fill:none;stroke:#40D2D6;stroke-miterlimit:10;}
	.st74{fill:none;stroke:#9669D6;stroke-miterlimit:10;}
	.st75{fill:#ABB6CA;}
	.st76{fill:none;stroke:#000000;stroke-miterlimit:10;}
	.st77{stroke:#000000;stroke-width:0.75;stroke-miterlimit:10;}
	.st78{fill:#333333;}
	.st79{fill:#40D2D6;stroke:#40D2D6;stroke-width:2;stroke-miterlimit:10;}
	.st80{fill:#EDEDED;}
	.st81{fill:#D6D7D8;}
	.st82{fill:#414242;}
	.st83{fill:#7388F6;}
	.st84{fill:none;stroke:#A7B4FF;stroke-miterlimit:10;}
	.st85{fill:#A7B4FF;}
	.st86{fill:#9669D6;}
	.st87{fill:#857ED6;}
	.st88{fill:#9CD3D1;}
	.st89{fill:#2FA5B2;}
	.st90{fill:#653FC4;}
	.st91{fill:#BAC3D1;}
	.st92{fill:#6C61FF;}
	.st93{fill:#889AFB;}
	.st94{fill:#2FC6F3;}
	.st95{fill:#B3BDF8;}
	.st96{fill:#1D1D1B;}
	.st97{fill:#C6C6C5;}
	.st98{fill:#E20613;}
	.st99{fill:none;}
	.st100{opacity:0.85;}
	.st101{fill:#ECEDF1;stroke:#FFFFFF;stroke-width:0.5;stroke-miterlimit:10;}
	.st102{fill:none;stroke:#FFFFFF;stroke-width:2;stroke-miterlimit:10;}
	.st103{fill:url(#SVGID_51_);}
	.st104{fill:#8293A2;}
	.st105{fill:none;stroke:#6ADFD9;stroke-miterlimit:10;}
	.st106{fill:url(#SVGID_52_);}
	.st107{fill:url(#SVGID_53_);}
	.st108{fill-rule:evenodd;clip-rule:evenodd;fill:#324A5E;}
	.st109{fill-rule:evenodd;clip-rule:evenodd;fill:#F9B54C;}
	.st110{fill-rule:evenodd;clip-rule:evenodd;fill:#FFD05B;}
	.st111{fill-rule:evenodd;clip-rule:evenodd;fill:#FEE187;}
	.st112{fill-rule:evenodd;clip-rule:evenodd;fill:#E6E9EE;}
	.st113{fill-rule:evenodd;clip-rule:evenodd;fill:#BA7958;}
	.st114{fill-rule:evenodd;clip-rule:evenodd;fill:#FEFEFE;}
	.st115{opacity:0.15;fill:#A7B4FF;}
	.st116{opacity:0.34;fill:#ECEDF1;}
	.st117{opacity:0.55;fill:#5E77FF;}
	.st118{fill:#5B6271;}
	.st119{opacity:0.15;fill:#40D2D6;}
	.st120{opacity:0.55;fill:#40D2D6;}
	.st121{clip-path:url(#SVGID_55_);}
	.st122{clip-path:url(#SVGID_55_);fill:#F2F2F2;stroke:#F2F2F2;stroke-width:0.75;stroke-miterlimit:10;}
	.st123{opacity:0.15;clip-path:url(#SVGID_55_);fill:#A7B4FF;}
	.st124{opacity:0.34;clip-path:url(#SVGID_55_);fill:#ECEDF1;}
	.st125{opacity:0.55;clip-path:url(#SVGID_55_);fill:#5E77FF;}
	.st126{clip-path:url(#SVGID_55_);fill:#5B6271;}
	.st127{clip-path:url(#SVGID_55_);fill:#A7B4FF;}
	.st128{fill-rule:evenodd;clip-rule:evenodd;fill:#84DBFF;}
	.st129{fill-rule:evenodd;clip-rule:evenodd;fill:#233540;}
	.st130{fill-rule:evenodd;clip-rule:evenodd;fill:#FF7058;}
	.st131{fill-rule:evenodd;clip-rule:evenodd;fill:#4CDBC4;}
	.st132{fill-rule:evenodd;clip-rule:evenodd;fill:#FFFFFF;}
	.st133{fill-rule:evenodd;clip-rule:evenodd;fill:#ECF0F1;}
	.st134{fill-rule:evenodd;clip-rule:evenodd;fill:#DFE1E3;}
	.st135{fill-rule:evenodd;clip-rule:evenodd;fill:#F1543F;}
	.st136{fill-rule:evenodd;clip-rule:evenodd;fill:#FD8469;}
	.st137{fill-rule:evenodd;clip-rule:evenodd;fill:#CED5E0;}
	.st138{fill-rule:evenodd;clip-rule:evenodd;fill:#D0D2D4;}
	.st139{fill:none;stroke:#5B6271;stroke-width:0.25;stroke-miterlimit:10;}
	.st140{clip-path:url(#SVGID_57_);}
	.st141{clip-path:url(#SVGID_57_);fill:#F2F2F2;stroke:#F2F2F2;stroke-width:0.75;stroke-miterlimit:10;}
	.st142{opacity:0.15;clip-path:url(#SVGID_57_);fill:#A7B4FF;}
	.st143{opacity:0.34;clip-path:url(#SVGID_57_);fill:#ECEDF1;}
	.st144{opacity:0.55;clip-path:url(#SVGID_57_);fill:#5E77FF;}
	.st145{clip-path:url(#SVGID_57_);fill:#5B6271;}
	.st146{clip-path:url(#SVGID_57_);fill:#A7B4FF;}
	.st147{fill-rule:evenodd;clip-rule:evenodd;fill:#90DFAA;}
	.st148{fill-rule:evenodd;clip-rule:evenodd;fill:#221F20;}
	.st149{fill-rule:evenodd;clip-rule:evenodd;fill:#F0B97D;}
	.st150{fill-rule:evenodd;clip-rule:evenodd;fill:#FED198;}
	.st151{fill-rule:evenodd;clip-rule:evenodd;fill:#E26868;}
	.st152{fill-rule:evenodd;clip-rule:evenodd;fill:#45A5AE;}
	.st153{fill-rule:evenodd;clip-rule:evenodd;fill:#699791;}
	.st154{fill-rule:evenodd;clip-rule:evenodd;fill:#9669D6;}
	.st155{fill-rule:evenodd;clip-rule:evenodd;fill:#FDDCCC;}
	.st156{fill-rule:evenodd;clip-rule:evenodd;fill:#333333;}
	.st157{fill-rule:evenodd;clip-rule:evenodd;fill:#E5E6E7;}
	.st158{fill-rule:evenodd;clip-rule:evenodd;fill:#191819;}
	.st159{fill-rule:evenodd;clip-rule:evenodd;fill:#28A7DF;}
	.st160{fill-rule:evenodd;clip-rule:evenodd;fill:#8FA7AF;}
	.st161{fill-rule:evenodd;clip-rule:evenodd;fill:#1C96CC;}
	.st162{fill-rule:evenodd;clip-rule:evenodd;fill:#1F120E;}
	.st163{fill-rule:evenodd;clip-rule:evenodd;fill:#FBB03B;}
	.st164{opacity:0.25;fill:#5E77FF;}
	.st165{fill:url(#SVGID_58_);}
	.st166{fill:url(#SVGID_59_);}
	.st167{fill:url(#SVGID_60_);}
	.st168{fill:url(#SVGID_61_);}
	.st169{fill:url(#SVGID_62_);}
	.st170{fill:url(#SVGID_63_);}
	.st171{fill:url(#SVGID_64_);}
	.st172{fill:url(#SVGID_65_);}
	.st173{fill:url(#SVGID_66_);}
	.st174{fill:url(#SVGID_67_);}
	.st175{fill:url(#SVGID_68_);}
	.st176{fill:url(#SVGID_69_);}
	.st177{fill:url(#SVGID_70_);}
	.st178{fill:url(#SVGID_71_);}
	.st179{fill:url(#SVGID_72_);}
	.st180{fill:url(#SVGID_73_);}
	.st181{fill:url(#SVGID_74_);}
	.st182{fill:#20E0EF;}
	.st183{fill:#3FACF7;}
	.st184{fill:#4E91FB;}
	.st185{fill:#A27CDA;}
	.st186{fill:#AF8FDE;}
	.st187{fill:#BBA2E2;}
	.st188{fill:#C7B4E5;}
	.st189{fill:#D3C7E9;}
	.st190{fill:#E0DAED;}
	.st191{fill:#ECEDF1;}
	.st192{fill:#8E6BDC;}
	.st193{fill:#866DE2;}
	.st194{fill:#7E6FE8;}
	.st195{fill:#7671ED;}
	.st196{fill:#6E73F3;}
	.st197{fill:#6675F9;}
	.st198{fill:#7389FD;}
	.st199{fill:#9DACF9;}
	.st200{fill:#C8CFF6;}
	.st201{fill:#DDE0F4;}
	.st202{fill:url(#SVGID_75_);}
	.st203{fill:url(#SVGID_76_);}
	.st204{fill:url(#SVGID_77_);}
	.st205{fill:url(#SVGID_78_);}
	.st206{fill:url(#SVGID_79_);}
	.st207{fill:url(#SVGID_80_);}
	.st208{fill:url(#SVGID_81_);}
	.st209{fill:url(#SVGID_82_);}
	.st210{fill:url(#SVGID_83_);}
	.st211{opacity:0.1;clip-path:url(#SVGID_85_);}
	.st212{fill:url(#SVGID_86_);}
	.st213{fill:url(#SVGID_87_);}
	.st214{fill:url(#SVGID_88_);}
	.st215{opacity:0.1;clip-path:url(#SVGID_90_);}
	.st216{fill:url(#SVGID_91_);}
	.st217{fill:url(#SVGID_92_);}
	.st218{fill:url(#SVGID_93_);}
	.st219{fill:none;stroke:#9AD9ED;stroke-miterlimit:10;}
	.st220{fill:none;stroke:#F2F2F2;stroke-miterlimit:10;}
	.st221{fill:#7ADDE2;}
	.st222{fill:#859BF9;}
	.st223{fill:#9B94F2;}
	.st224{fill:#AAB8E5;}
	.st225{fill:#B5E2E1;}
	.st226{opacity:0.87;}
	.st227{fill:none;stroke:#FFFFFF;stroke-width:0.5;stroke-miterlimit:10;}
	.st228{fill:url(#SVGID_94_);}
	.st229{opacity:0.29;fill:#C7D0FF;}
	.st230{fill:url(#SVGID_95_);}
	.st231{fill:url(#SVGID_96_);}
	.st232{fill:url(#SVGID_97_);}
	.st233{fill:url(#SVGID_98_);}
	.st234{fill:url(#SVGID_99_);}
	.st235{fill:url(#SVGID_100_);}
	.st236{fill:url(#SVGID_101_);}
	.st237{fill:url(#SVGID_102_);}
	.st238{fill:url(#SVGID_103_);}
	.st239{fill:url(#SVGID_104_);}
	.st240{fill:url(#SVGID_105_);}
	.st241{fill:url(#SVGID_106_);}
	.st242{fill:#5E77FF;stroke:#5E77FF;stroke-miterlimit:10;}
	.st243{fill:#4D4D4D;}
</style>
<g id="Capa_2" class="st0">
</g>
<g id="Capa_3">
</g>
<g id="Capa_1">
	<g>
		<g>
			
				<image style="overflow:visible;opacity:0.3;" width="125" height="113" xlink:href="ACB5A27C.png"  transform="matrix(1 0 0 1 -2.6667 -9.3333)">
			</image>
			<g>
				<polygon class="st3" points="109.4,67.3 109.4,0 9.9,0 9.9,67.3 59.7,88 59.7,88 59.7,88 				"/>
			</g>
		</g>
		<g>
			<path class="st96" d="M41.7,43.3c-1.7-1.8-3.9-2.8-6.6-2.8c-2.7,0-5,0.9-6.6,2.8c-1.7,1.8-2.5,4.3-2.5,7.3c0,3,0.8,5.4,2.5,7.2
				c1.7,1.8,3.9,2.8,6.6,2.8c2.7,0,5-0.9,6.6-2.8c1.7-1.8,2.5-4.2,2.5-7.2C44.2,47.5,43.4,45.1,41.7,43.3 M37.2,53.3
				c-0.6,0.7-1.3,1.1-2.1,1.1c-0.9,0-1.6-0.4-2.2-1.1c-0.6-0.7-0.9-1.6-0.9-2.7c0-1.1,0.3-2,0.9-2.8c0.6-0.7,1.3-1.1,2.2-1.1
				c0.9,0,1.6,0.4,2.1,1.1c0.6,0.7,0.8,1.6,0.8,2.8C38,51.6,37.8,52.6,37.2,53.3"/>
			<polygon class="st96" points="63.5,40.5 57.3,40.5 57.3,50.6 51.9,40.5 45.6,40.5 45.6,60.5 51.8,60.5 51.8,50.8 57.1,60.5 
				63.5,60.5 			"/>
			<path class="st96" d="M78.2,42.5c-1.3-1.3-2.9-2-4.9-2h-8.7v20H71v-6h3.3c1.7,0,3.1-0.6,4.2-1.9c1.1-1.2,1.6-2.9,1.6-4.9
				C80.1,45.6,79.5,43.9,78.2,42.5 M73.5,48.9c-0.3,0.3-0.8,0.5-1.3,0.5H71v-3.5h1.4c0.4,0,0.8,0.2,1.1,0.5c0.3,0.3,0.4,0.7,0.4,1.1
				C74,48.1,73.8,48.6,73.5,48.9"/>
			<polygon class="st96" points="93.5,54.9 87.8,54.9 87.8,53.1 92.8,53.1 92.8,47.8 87.8,47.8 87.8,45.9 93.3,45.9 93.3,40.5 
				81.4,40.5 81.4,60.5 93.5,60.5 			"/>
			<rect x="45.6" y="11.5" class="st97" width="28.1" height="28"/>
			<polygon class="st3" points="58.9,45.1 54.6,29.7 56.7,27.5 58,31.7 60.3,32.1 61.9,29.9 64.6,31.6 66.5,29.9 64.4,18.9 
				67.4,18.1 73.4,41.5 			"/>
			<path class="st98" d="M45.6,11.5v9.6c0,0,0.3,2.2,1,4.9c0.7,2.7,1,5.2,3.3,4.8c0,0,1.5-0.1,1.8-1.1c0,0,1.4,0.9,2.8,0.5
				c1.4-0.4,1.9-1.4,1.9-1.4s0.7,2.6,1,3.3c0.3,0.7,1.6,1.1,2.6,0.9c1-0.2,2.2-1.8,2.2-1.8s1.2,1.7,3.2,0.9c0,0,2-0.9,1.7-2.4
				c-0.3-1.4-3-12.7-3-12.7l-1.8,0.5l2.8,11.2c0,0,0.5,1.6-0.5,1.9c0,0-0.9,0.2-1.2-0.6c-0.3-0.8-2.1-8.5-2.1-8.5l-2,0.6l1.5,6.5
				c0,0,0.6,1.9-0.7,2.4c0,0-1.5,0.5-2-1.3c-0.4-1.8-1.8-6.9-1.8-6.9l-2.1,0.5l0.7,2.4c0,0,0.6,1.9-0.6,2.4c-1.2,0.5-1.8-0.4-2-0.9
				c-0.1-0.5-0.8-3.4-0.8-3.4l-1.8,0.3l0.7,3.1c0,0,0.3,1.1-0.5,1.4c-0.8,0.2-1.1-0.7-1.2-1c-0.1-0.3-1.3-3.9-1.5-5.3
				c-0.2-1.4-0.9-6-0.9-6.9c0-0.9-0.2-2.3,0.2-3.9H45.6z"/>
			<path class="st98" d="M67.4,18.1l0.8,3.2c0,0,2.9-3.7,1.8-6.8c0,0-0.6-1.8-1.8-3h-2.5c0,0,2.4,2.4,2.3,4.2
				C68,17.6,67.4,18.1,67.4,18.1"/>
		</g>
	</g>
</g>
</svg>
